<svg xmlns="http://www.w3.org/2000/svg" height="114.61" viewBox="0 0 250.00008 114.60982" width="250"><g transform="matrix(1.25 0 0 -1.25 291.31 936.12)"><g transform="matrix(1.8429 0 0 1.8429 113.52 -591.21)"><path d="m0 0v10.484 10.486h1.2305 1.2324l-0.166 9.354-0.168 9.356-0.9883 0.334-0.99021 0.332-0.080078 10.234c-0.043375 5.6286 0.029509 10.232 0.16211 10.232s2.1248-0.68617 4.4258-1.5254c16.817-6.133 33.184-9.258 52.496-10.021l5.1543-0.20312 0.0918-1.2402 0.08984-1.2383 0.63086 0.99609 0.62891 0.99805 0.63867-0.99805 0.63867-0.99609 0.0059 1.2305 0.0039 1.2324 1.5742 0.18945c0.86542 0.10389 2.4651 0.19016 3.5547 0.19141 3.4113 0.0045 16.879 1.5054 20.273 2.2598 0.66936 0.14882 0.67383 0.12399 0.67383-3.3652v-3.5137l0.82422 0.94531c0.45331 0.5194 2.077 2.4151 3.6094 4.2129 2.7153 3.1855 2.8301 3.2778 4.4961 3.6465 4.7642 1.0544 14.269 4.2633 19.393 6.5469 1.1539 0.51429 2.3074 0.94031 2.5625 0.94531 0.46978 0.0091 5.593-4.3383 8.752-7.4258l1.7246-1.6836v-15.213-15.213h1.0488 1.0488v-10.785-10.785h-32.18-32.189l-2.924 4.7188c-1.609 2.595-3.091 4.8999-3.295 5.121-0.299 0.3262-0.954-0.5593-3.478-4.7109l-3.109-5.1113-10.116-0.0097875-10.115-0.0078125v9.4375 9.4355h1.0488 1.0508v5.8359c0 6.6701 0.36262 5.9422-3.1484 6.2988-2.5341 0.2574-12.181 1.6307-12.812 1.8242-0.48875 0.14989-0.52344-0.29941-0.52344-6.5996v-6.7598h1.1973 1.1992v-9.7363l-0.002-9.736h-12.588-12.588zm88.297 18.432h0.73828 0.73828v6.4414 6.4414h-0.70117c-0.38464 0-0.75559-0.05663-0.82422-0.125-0.06862-0.06834-0.08473-2.9673-0.03711-6.4414l0.08594-6.3164zm21.699 0.9707 0.67383 0.17969c0.3709 0.09936 0.7748 0.18305 0.89844 0.18555 0.12363 0.0023 0.22461 3.8472 0.22461 8.543s-0.10097 8.5276-0.22461 8.5176c-0.12363-0.01045-0.52754-0.14005-0.89844-0.28906l-0.67383-0.27148v-8.4316-8.4336z" transform="matrix(.8 0 0 -.8 -187.68 726.69)" fill="#0076a5"/><path d="m87.816 2.6875-8.158 0.0801-8.158 0.0781-3.756 6.043c-2.0653 3.3236-3.8281 6.116-3.918 6.2051-0.08987 0.089-1.9114-2.6629-4.0469-6.1152l-3.8828-6.2773-8.166-0.00195-8.168-0.00195v6.7402 6.7402h1.1992 1.1992v8.3535 8.3535l-0.67578 0.17969c-0.3709 0.09938-1.0447 0.1833-1.498 0.18555l-0.82422 0.0039v7.3379 7.3398h0.76367c0.42 0 2.6079-0.21327 4.8633-0.47461 2.2554-0.26135 6.5314-0.56445 9.502-0.67383l5.4023-0.19922 0.14844-4.4941 0.15039-4.4922 0.7832 1.1973c0.43041 0.65906 1.3166 2.0438 1.9707 3.0762l1.1895 1.877 1.9258-3.0762 1.9238-3.0742 0.08203 4.5215 0.08203 4.5234 3.9336 0.19922c3.8216 0.19332 10.246 0.85471 13.285 1.3672 0.82421 0.13899 1.9369 0.26772 2.4727 0.28711l0.97461 0.03516v-7.4551-7.4551l-0.67383-0.17969c-0.3709-0.09938-0.97872-0.1833-1.3496-0.18555l-0.67383-0.0039v-8.6875-8.6875h1.0488 1.0488v-6.5937-6.5957zm-85.418 0.00781v7.8164 7.8145l1.2012-0.20312 1.2031-0.20312-0.078125 11.908-0.078125 11.908-1.0508 0.35352-1.0488 0.35352-0.080078 7.3867c-0.044125 4.0633-0.019641 7.3887 0.052734 7.3887s2.0014-0.67017 4.2871-1.4883c7.5735-2.7108 16.31-4.969 25.637-6.625l3.8223-0.67774v-7.3828-7.3848l-2.1738 0.24609c-1.1951 0.13474-4.0264 0.53055-6.293 0.88086l-4.1211 0.63672v0.83008c0 0.92345-0.21188 1.0536-2.2129 1.3535l-1.3926 0.20703 0.08008-10.443c0.06113-8.0897 0.16296-10.453 0.45312-10.482 0.20606-0.02062 0.77891-0.05359 1.2734-0.07422l0.90039-0.03906v-7.0391-7.041h-10.191-10.189zm88.104 0 0.08008 6.666c0.07887 6.523 0.09412 6.6676 0.71289 6.7559 0.62945 0.08988 0.63471 0.1469 0.78125 13.084l0.14648 12.994 1.2871 1.4453c0.70815 0.79471 2.4093 2.7282 3.7812 4.2969 2.4939 2.8514 2.4961 2.8519 4.6777 3.4062 3.7425 0.95099 11.98 3.7092 15.703 5.2578 1.9595 0.81515 3.7178 1.4911 3.9082 1.5 0.19035 0.0087 1.6619-1.1638 3.2695-2.6055 1.6077-1.4417 3.3748-3.0017 3.9258-3.4668l1-0.8457v-16.344-16.344l1.1992 0.19336 1.1992 0.19141v-8.0918-8.0938h-10.041-10.039v7.1719 7.1719l1.123 0.09375 1.125 0.0918 0.0781 11.365c0.0432 6.2508-0.0247 11.454-0.15039 11.562-0.12565 0.10838-1.6772-0.26084-3.4492-0.82031l-3.2226-1.0156-0.0371-9.7969c-0.02-5.3878-0.0531-10.201-0.0742-10.695-0.0355-0.83041 0.0475-0.90628 1.0859-0.99219l1.123-0.0918v-7.0215-7.0234h-9.5957-9.5977z" transform="matrix(.8 0 0 -.8 -187.68 726.69)" fill="#fff"/><path d="m85.719 4.7812-6.4805 0.080078-6.4805 0.082031-4.5176 7.2422-4.5156 7.2441-3.8594-6.1953c-2.122-3.4076-4.145-6.7011-4.494-7.319l-0.63281-1.123h-6.3887-6.3887v4.666 4.666l0.97266-0.09766 0.97461-0.09766 0.07813 10.543 0.08008 10.545-1.4277 0.08984-1.4277 0.0918-0.08203 5.168-0.08203 5.168h0.7793c0.42912 0 2.0176-0.14018 3.5293-0.3125 1.5117-0.17231 4.8395-0.40939 7.3945-0.52539l4.6445-0.21094 0.08203-5.168 0.08203-5.168h-1.2051-1.2051v-3.9609c0-3.3777 0.05743-3.8731 0.39453-3.3691 0.21739 0.325 2.1258 3.3265 4.2422 6.6699s3.9517 5.9723 4.0781 5.8418c0.12644-0.13052 2.0125-3.0692 4.1895-6.5293s4.0076-6.3474 4.0684-6.416c0.06075-0.06865 0.10938 1.6433 0.10938 3.8027v3.9258l-1.123 0.09375-1.125 0.0918-0.08008 5.1387-0.08203 5.1387 3.2285 0.21289c1.7759 0.11722 5.184 0.44904 7.5742 0.73828 2.3902 0.28925 4.6486 0.54491 5.0195 0.56641l0.67578 0.03906v-5.3535-5.3555l-1.5254-0.20117-1.5254-0.20312 0.16602-7.8496c0.09079-4.3175 0.16953-9.097 0.17578-10.621l0.01172-2.7695h1.0488 1.0488v-4.5-4.5zm28.473 0.00195v5.0801 5.0801l1.123 0.0918 1.125 0.09375 0.0781 13.477 0.0781 13.477-0.66797 0.50391c-0.40942 0.30865-0.84543 0.41283-1.127 0.26953-0.25256-0.12856-2.1465-0.73305-4.207-1.3438-2.9493-0.8741-3.9227-1.298-4.5742-1.9961l-0.82617-0.88672 0.0781-12.051 0.0781-12.049 0.97461 0.09375 0.97266 0.09375v-4.9609-4.9629h-7.3418-7.3438v4.6445 4.6426h0.90039 0.89844v13.658 13.658l2.6738 3.043c1.4705 1.6734 2.9191 3.3426 3.2207 3.709 0.39886 0.48456 1.8464 1.0392 5.3047 2.0332 4.9353 1.4185 11.092 3.5553 13.775 4.7812 0.85285 0.3897 1.6848 0.71797 1.8496 0.73047 0.16484 0.01223 1.6814-1.268 3.3711-2.8457l3.0723-2.8691v-16.826-16.826h1.125 1.123v-5.6914-5.6914l-7.8672-0.080078-7.8672-0.080078zm-109.4 0.0098v5.543 5.541h1.0488 1.0488v13.738 13.736l-0.97266 0.2793-0.97461 0.2793-0.082031 5.0879-0.082031 5.0898 4.7285-1.5664c5.3714-1.778 13.731-3.879 20.236-5.085l4.4219-0.82031v-5.3262-5.3262l-0.82422 0.14453c-1.2169 0.2134-7.0353 1.0391-7.3223 1.0391-0.1358 0-0.24609 0.39629-0.24609 0.87891 0 0.82856-0.09538 0.89524-1.7227 1.2207-0.94785 0.18958-2.5747 0.53747-3.6152 0.77148-1.0405 0.23402-2.0192 0.42383-2.1738 0.42383-0.17062 0-0.28125-5.0038-0.28125-12.73v-12.732h1.1992 1.1992v-5.0918-5.0938h-7.793-7.793z" transform="matrix(.8 0 0 -.8 -187.68 726.69)" fill="#ab0c2f"/></g></g></svg>
