<?xml version="1.0" encoding="utf-8"?>
<svg xmlns="http://www.w3.org/2000/svg" x="0px" y="0px" width="432px" height="83px">
<path fill="#63666A" d="M263.4,25.6c-2.4,2.4-5.5,3.6-9.1,3.6c-3.6,0-6.7-1.2-9.1-3.5c-2.4-2.3-3.6-5.3-3.6-8.8c0-3.6,1.2-6.6,3.6-9
	c2.4-2.3,5.5-3.5,9.2-3.5c3.5,0,6.6,1.2,9,3.5c2.4,2.4,3.7,5.3,3.7,8.7C267.1,20.3,265.9,23.3,263.4,25.6 M266.4,5.3
	c-3.2-3-7.3-4.6-12.1-4.6c-4.8,0-8.9,1.5-12,4.6c-3.1,3-4.7,6.9-4.7,11.6c0,4.5,1.6,8.3,4.7,11.4c3.1,3,7.1,4.5,11.8,4.5
	c4.9,0,9.1-1.5,12.3-4.5c3.2-3,4.9-6.9,4.9-11.4C271.2,12.2,269.6,8.4,266.4,5.3 M277.1,30c1.9,1.9,4.5,2.8,7.6,2.8
	c1.9,0,3.8-0.4,5.8-1.1v-3.4c-1.9,0.8-3.7,1.2-5.2,1.2c-2.3,0-4.1-0.7-5.5-2c-1.4-1.3-2-3.1-2-5.3c0-2.1,0.6-3.9,1.9-5.2
	c1.3-1.4,2.9-2.1,4.8-2.1c1.7,0,3.6,0.6,5.5,1.8V13c-1.2-0.5-2.2-0.9-2.9-1.1c-0.8-0.2-1.8-0.3-2.8-0.3c-3,0-5.5,1-7.3,2.9
	c-1.8,2-2.8,4.6-2.8,7.8C274.3,25.5,275.2,28.1,277.1,30 M296.5,30c1.9,1.9,4.5,2.8,7.6,2.8c1.9,0,3.8-0.4,5.8-1.1v-3.4
	c-1.9,0.8-3.7,1.2-5.2,1.2c-2.3,0-4.1-0.7-5.5-2c-1.4-1.3-2-3.1-2-5.3c0-2.1,0.6-3.9,1.9-5.2c1.3-1.4,2.9-2.1,4.8-2.1
	c1.7,0,3.6,0.6,5.5,1.8V13c-1.2-0.5-2.2-0.9-2.9-1.1c-0.8-0.2-1.8-0.3-2.8-0.3c-3,0-5.5,1-7.3,2.9c-1.8,2-2.8,4.6-2.8,7.8
	C293.6,25.5,294.6,28.1,296.5,30 M314.8,32.4h3.6V12.1h-3.6V32.4z M318.1,3.7c-0.4-0.4-1-0.6-1.6-0.6c-0.6,0-1.1,0.2-1.5,0.7
	c-0.4,0.4-0.7,1-0.7,1.5c0,0.6,0.2,1.1,0.7,1.6c0.4,0.5,0.9,0.7,1.5,0.7c0.6,0,1.1-0.2,1.6-0.7c0.4-0.4,0.7-1,0.7-1.6
	C318.8,4.7,318.6,4.2,318.1,3.7 M328.2,16.7c1.3-1.4,3-2.1,5.2-2.1c1.4,0,2.7,0.3,4.1,1l0.2,0.1v13.8h-3.5c-1.9,0-3.2-0.1-4-0.4
	c-0.8-0.3-1.5-0.8-2.2-1.5c-1.1-1.2-1.7-3-1.7-5.2C326.3,20,326.9,18.1,328.2,16.7 M325.4,29.6c1.8,1.9,4.2,2.8,7.2,2.8h8.6V1.2
	h-3.6v11.4l-0.4-0.1c-1.6-0.6-3.1-0.9-4.5-0.9c-2.9,0-5.3,1-7.2,2.9c-1.9,1.9-2.8,4.4-2.8,7.4C322.7,25.1,323.6,27.7,325.4,29.6
	 M349,20.1c0.3-1.7,1-3.1,2-4c1-0.9,2.3-1.4,3.9-1.4c1.6,0,2.8,0.5,3.8,1.4c0.9,0.9,1.5,2.3,1.6,4H349z M363.3,27
	c-2.4,1.6-4.9,2.5-7.3,2.5c-2,0-3.7-0.6-5-1.9c-1.3-1.2-2-3-2.1-5.1l0-0.3h14.8v-0.3c0-3.2-0.8-5.7-2.4-7.6
	c-1.6-1.9-3.8-2.8-6.4-2.8c-2.8,0-5.1,1-6.8,2.9c-1.7,1.9-2.6,4.5-2.6,7.6c0,2.1,0.4,3.9,1.3,5.5c0.8,1.6,2,2.8,3.3,3.8
	c1.4,0.9,3.2,1.4,5.4,1.4c1.7,0,3.1-0.2,4.3-0.5c1.2-0.3,2.4-0.9,3.6-1.7V27z M377,14.8c1.7,0,2.9,0.4,3.5,1.4c0.7,1,1,2.3,1,4.6
	v11.7h3.5V20.7c0-2.5-0.3-4.3-0.8-5.5c-0.6-1.1-1.4-2-2.5-2.7c-1.1-0.6-2.2-1-3.5-1c-2.3,0-4.3,0.9-6.1,2.9l-0.5,0.6v-3.1H368v20.4
	h3.6V18.6l0,0C373.3,16.2,375.1,14.8,377,14.8 M391.5,28.6c0.2,0.6,0.4,1.2,0.6,1.6c0.2,0.4,0.6,0.7,0.9,1.1
	c1.2,1.1,2.7,1.6,4.6,1.6c1.8,0,3.4-0.4,4.9-1.2v-3.2c-1.5,0.8-3,1.3-4.4,1.3c-2.2,0-3.3-1.3-3.3-3.9V15.2h6.6v-3.1h-6.6V8.1l-7.2,7
	h3.6v9.6C391.3,26.7,391.4,27.9,391.5,28.6 M416.8,28.2L416.8,28.2c-1.5,1.4-2.8,2.2-4,2.2c-1,0-1.8-0.2-2.4-0.8
	c-0.6-0.6-0.9-1.3-0.9-2.3c0-0.9,0.3-1.7,1-2.3c0.6-0.6,1.7-1.2,3.1-1.8c0,0,1.8-0.7,3.1-1.1l0.1,0V28.2z M423.3,29.4
	c-0.9,0.6-1.6,0.8-2,0.8c-0.3,0-1,0-1-1.2v-8.8c0-1.7,0-2.9-0.1-3.5c-0.1-0.6-0.3-1.2-0.7-1.8c-0.3-0.6-0.7-1.1-1.2-1.4
	c-1.3-1.1-3.1-1.7-5.3-1.7c-2.9,0-5.1,0.9-6.7,2.7v3.5c2.1-2.1,4.3-3.3,6.3-3.3c2.6,0,4.1,1.6,4.1,4.4v1.1c0,0-6.7,1.7-9.5,4.5
	c-0.9,1-1.3,2.1-1.3,3.3c0,1.4,0.5,2.5,1.4,3.4c0.9,0.9,2.1,1.4,3.4,1.4c1.9,0,3.8-0.7,5.5-2l0.4-0.3l0.1,0.5
	c0.3,1.3,1.2,1.9,2.9,1.9c0.9,0,2.3-0.3,3.8-1.3V29.4z M427.4,32.4h3.6V1.2h-3.6V32.4z M239.6,64.5c1.4,2.5,3.4,4.4,5.8,5.8
	c2.4,1.4,5.5,2.1,9,2.1c4.2,0,8.1-0.9,11.4-2.6v-4.3c-3.6,2.2-7.3,3.3-11.1,3.3c-3.8,0-7-1.2-9.4-3.5c-2.4-2.3-3.7-5.3-3.7-8.9
	c0-3.5,1.3-6.5,3.7-8.9c2.5-2.4,5.7-3.6,9.4-3.6c3.4,0,7.1,1,10.7,3v-4.2c-4-1.7-7.7-2.5-10.9-2.5c-4.7,0-8.9,1.6-12.1,4.7
	c-3.2,3.1-4.9,7-4.9,11.5C237.5,59.3,238.2,62,239.6,64.5 M285.2,67.1c-1.4,1.3-3.1,2-5.2,2c-2.1,0-3.9-0.7-5.3-2
	c-1.4-1.3-2.1-3.1-2.1-5.1c0-2.1,0.7-3.8,2-5.2c1.3-1.4,3.1-2.1,5.1-2.1c2.1,0,3.9,0.7,5.3,2c1.4,1.4,2.1,3.1,2.1,5.2
	C287.2,64.1,286.6,65.8,285.2,67.1 M287.8,54.6c-2-2-4.7-3-7.8-3c-3.1,0-5.8,1-7.8,3c-2.1,2-3.1,4.5-3.1,7.5c0,2.9,1,5.4,3.1,7.4
	c2,2,4.6,3,7.7,3c3.2,0,5.8-1,7.9-2.9c2.1-1.9,3.1-4.4,3.1-7.3C290.9,59.2,289.8,56.6,287.8,54.6 M295.1,72h3.7V40.8h-3.7V72z
	 M304.6,72h3.7V40.8h-3.7V72z M316.3,59.7c0.3-1.7,1-3.1,2-4c1-0.9,2.3-1.4,3.9-1.4c1.6,0,2.8,0.5,3.8,1.4c0.9,0.9,1.5,2.3,1.6,4
	H316.3z M330.6,66.8c-2.2,1.5-4.7,2.3-7.3,2.3c-2,0-3.7-0.6-5-1.9c-1.3-1.2-2-3-2.1-5.1l0-0.3H331v-0.3c0-3.2-0.8-5.7-2.4-7.6
	c-1.6-1.9-3.8-2.8-6.4-2.8c-2.8,0-5.1,1-6.8,2.9c-1.8,1.9-2.6,4.5-2.6,7.6c0,2.1,0.4,3.9,1.3,5.5c0.8,1.6,2,2.8,3.3,3.8
	c1.4,0.9,3.2,1.4,5.4,1.4c1.7,0,3.1-0.2,4.3-0.5c1.2-0.3,2.4-0.9,3.6-1.7V66.8z M346.8,79.2c-1.1,0.6-2.5,0.8-4.4,0.8
	c-4.1,0-6.1-1.2-6.1-3.5c0-1,0.5-1.9,1.5-2.5c0.9-0.6,2.1-0.9,3.6-0.9c2.1,0,3.8,0.3,5.1,1c1.4,0.7,2.1,1.6,2.1,2.7
	C348.4,77.7,347.9,78.6,346.8,79.2 M339.1,61.8c-0.8-0.8-1.3-1.7-1.3-2.9c0-1.1,0.4-2.1,1.3-3c0.8-0.8,1.9-1.2,3.1-1.2
	c1.3,0,2.3,0.4,3.2,1.2c0.9,0.8,1.3,1.8,1.3,3c0,1.2-0.4,2.1-1.3,2.9c-0.8,0.8-1.9,1.2-3.1,1.2C341,62.9,340,62.5,339.1,61.8
	 M351.9,76.5c0-1.4-0.5-2.6-1.4-3.6c-0.6-0.6-1.2-1-1.9-1.3c-0.7-0.3-2.4-0.7-4.9-1.3c-1.6-0.3-2.6-0.7-3.3-1c-0.7-0.4-1-0.9-1-1.5
	c0-1,0.9-1.7,2.6-1.9c2.2-0.3,3.8-0.8,4.7-1.3c0.9-0.5,3.2-1.8,3.2-5.4c0-3.3-2.5-4.9-2.5-4.9h4.2v-2.6h-8c-2.7,0-4.9,0.6-6.5,1.9
	c-1.6,1.2-2.3,2.9-2.3,5.1c0,5.6,5.1,6.6,5.1,6.6s-3.8,1-3.8,3c0,2,2.6,2.8,2.6,2.8l-0.7,0.2c-3.4,0.8-5,2.5-5,5.2
	c0,1.9,0.8,3.4,2.5,4.5c1.7,1.2,4.1,1.7,7,1.7c2.9,0,5.2-0.6,6.9-1.7C351,79.9,351.9,78.4,351.9,76.5 M357.9,59.7c0.3-1.7,1-3.1,2-4
	c1-0.9,2.3-1.4,3.9-1.4c1.6,0,2.8,0.5,3.8,1.4c0.9,0.9,1.5,2.3,1.6,4H357.9z M372.2,66.8c-2.2,1.5-4.7,2.3-7.3,2.3
	c-2,0-3.7-0.6-5-1.9c-1.3-1.2-2-3-2.1-5.1l0-0.3h14.8v-0.3c0-3.2-0.8-5.7-2.4-7.6c-1.6-1.9-3.8-2.8-6.4-2.8c-2.8,0-5.1,1-6.8,2.9
	c-1.8,1.9-2.6,4.5-2.6,7.6c0,2.1,0.4,3.9,1.3,5.5c0.8,1.6,2,2.8,3.3,3.8c1.4,0.9,3.2,1.4,5.4,1.4c1.7,0,3.1-0.2,4.3-0.5
	c1.2-0.3,2.4-0.9,3.6-1.7V66.8z"/>
<path fill="#FF671F" d="M219.8,1.8c0.5,0,0.9,0.5,0.9,1.4c0,0.4,0,1.3-1,1.4c-3.3,0.4-5.3,1.1-7,2.1c-1.7,1-3.7,3.2-6,6.6
	l-18.6,27.2v20.3c0,2.3,0.2,3.9,0.6,4.8c0.4,0.9,1.3,1.7,2.6,2.3c1.4,0.6,3.5,1.1,6.3,1.4c0.5,0.1,0.8,0.5,0.8,1.4
	c0,0.9-0.4,1.4-0.9,1.4c-2.2,0-4.6-0.1-7.4-0.3c-2.7-0.2-5.1-0.3-7.1-0.3c-2,0-4.5,0.1-7.4,0.3c-3.1,0.2-5.3,0.3-7.5,0.3
	c-0.5,0-0.9-0.5-0.9-1.4c0-0.8,0.3-1.3,0.8-1.4c4-0.5,6.4-1.2,7.9-2.3c1.4-1,2.2-3.1,2.2-6.3V40.6l-17.2-27.4
	c-2.4-3.4-4.4-5.6-6.2-6.6s-3.2-1.6-6.2-2c-0.6-0.1-0.8-0.5-0.8-1.4c0-0.9,0.4-1.4,0.9-1.4c1.6,0,2.5,0.1,5.2,0.3
	c2.9,0.2,5.3,0.3,7.1,0.3c1.7,0,4-0.1,7-0.3c3.5-0.2,6.3-0.3,8.6-0.3c0.5,0,1,0.5,1,1.4c0,0.8-0.2,1.3-0.8,1.4
	C172.2,5.2,170,6.3,170,8c0,1.4,0.7,3.1,2,5.2L186.4,36l15.1-22.8c1.1-1.6,1.6-3,1.6-4.2c0-1.3-0.6-2.3-1.8-2.9
	c-1.2-0.7-3-1.2-5.9-1.5c-0.5-0.1-0.8-0.5-0.8-1.4c0-0.9,0.3-1.4,0.8-1.4c2,0,4.2,0.1,7.2,0.3c2.8,0.2,5.1,0.2,6.9,0.2
	c1.7,0,3.5-0.1,5.4-0.2C217.2,1.9,218.1,1.8,219.8,1.8 M57.1,61.2c4.8-6.1,7.1-14.1,7.1-24c0-9.9-2.4-18-7.2-24.3
	C52.3,6.6,46,3.5,38.2,3.5c-7.8,0-14.1,3.1-18.9,9.4c-4.8,6.3-7.1,14.4-7.1,24.3c0,9.9,2.4,17.9,7.1,24c4.7,6.1,11,9.2,19,9.2
	C46,70.4,52.4,67.4,57.1,61.2 M38.2,0.3c11,0,20,3.5,26.9,10.5c6.9,7,10.4,15.8,10.4,26.5c0,10.7-3.4,19.4-10.3,26.2
	c-6.9,6.8-15.8,10.2-26.9,10.2c-11.1,0-20-3.4-26.9-10.2C4.4,56.7,1,48,1,37.3c0-10.7,3.5-19.6,10.4-26.5
	C18.3,3.8,27.2,0.3,38.2,0.3 M145.2,69.2c-3.7-0.4-6.1-1.1-7.7-2c-1.7-0.9-3.7-3.1-6.2-6.6l-18.1-26.6l15.7-20.9
	c2.4-3.1,4.5-5.2,6.4-6.3c1.9-1.1,4.1-1.8,7.7-2.2c0.4,0,0.6-0.1,0.9-0.4C144,4,144,3.5,144,3.2c0-0.9-0.4-1.4-1-1.4
	c-2.3,0-4.1,0.1-6.7,0.4c-2.1,0.2-3.9,0.3-5.5,0.3c-2,0-4.3-0.1-6.8-0.3c-2.7-0.2-5.1-0.3-7.3-0.3c-0.5,0-0.8,0.5-0.8,1.4
	c0,0.9,0.1,1.3,0.6,1.4c3,0.4,5.2,1,6.5,1.7c1.3,0.7,2,1.6,2,2.8c0,0.9-0.6,2.3-1.8,4.2l-12.3,17.6L98.8,13.2
	c-1.7-2.4-2.5-4.2-2.5-5.4c0-0.8,0.5-1.5,1.4-2c1-0.5,2.8-0.9,5.5-1.3c0.6-0.1,0.8-0.5,0.8-1.4c0-0.9-0.3-1.4-0.9-1.4
	c-2.2,0-4.9,0.1-8.2,0.3c-3.1,0.2-5.7,0.3-7.7,0.3c-1.8,0-3.9-0.1-7-0.3c-2.9-0.2-4.2-0.3-5.8-0.3c-0.5,0-0.9,0.5-0.9,1.4
	c0,0.9,0.2,1.4,0.9,1.5c3.5,0.4,5.1,1,6.9,1.9c1.8,1,3.9,3.2,6.2,6.7L105,38.8L88.3,60.7c-2.5,3.2-4.6,5.3-6.5,6.4
	c-1.9,1.1-3.4,1.7-6.7,2.1c-0.7,0.1-1.1,0.6-1.1,1.4c0,0.9,0.4,1.4,0.9,1.4c1.1,0,3.6-0.1,6-0.3c2.2-0.2,4.1-0.3,5.6-0.3
	c1.7,0,3.3,0.1,5.9,0.3c3,0.2,5.6,0.3,7.9,0.3c0.5,0,0.9-0.5,0.9-1.4c0-0.9-0.1-1.4-0.7-1.5c-3-0.5-5.1-0.9-6.3-1.5
	C93,67,92.4,66,92.4,64.8c0-1.3,0.5-2.6,1.6-4.1L107.2,42L120,60.7c1.7,2.4,2.5,4.2,2.5,5.4c0,1.5-2.3,2.5-6.9,3.2
	c-0.5,0.1-0.8,0.5-0.8,1.4c0,0.9,0.4,1.4,0.9,1.4c2.3,0,5-0.1,8.4-0.3c3.2-0.2,5.8-0.3,7.7-0.3c1.8,0,4.3,0.1,7.3,0.3
	c2.8,0.2,4.6,0.3,6.1,0.3c0.5,0,0.9-0.5,0.9-1.4C145.9,69.8,145.7,69.3,145.2,69.2"/>
</svg>
