<?xml version="1.0" encoding="UTF-8" standalone="no"?>
<svg xmlns:rdf="http://www.w3.org/1999/02/22-rdf-syntax-ns#" xmlns="http://www.w3.org/2000/svg" xml:space="preserve" height="24.66" viewBox="0 0 91.830002 24.66032" width="91.83" version="1.1" xmlns:cc="http://creativecommons.org/ns#" xmlns:dc="http://purl.org/dc/elements/1.1/"><defs><clipPath id="a" clipPathUnits="userSpaceOnUse"><rect transform="scale(1,-1)" height="22.366" width="76.193" y="-720.44" x="50.767" fill="#1e1840"/></clipPath></defs><g transform="matrix(1.25 0 0 -1.25 -66.477 901.55)"><g transform="translate(.34490 .34490)"><path d="m124.89 718.88c-0.96 1.081-2.561 1.629-4.756 1.629h-10.108l0.002 0.01h-2.025c0.985 2.405 0.961 4.756 0.903 5.67-0.162-0.023-0.326-0.045-0.489-0.068-0.171-0.024-0.341-0.048-0.514-0.071 0.235-1.618 0.141-3.052-0.116-4.285-0.093-0.441-0.206-0.857-0.333-1.246h-10.732c-1.572 0-2.89-0.341-3.932-1.015l0.202 0.997h-0.073v0.001h-13.051c-1.662 0-2.95-0.285-3.964-0.887l0.193 0.894h-4.567c-0.484 1.476-0.772 3.338-0.453 5.541-0.337 0.045-0.671 0.092-1.003 0.139-0.058-0.915-0.083-3.272 0.908-5.68h-13.799l-3.998-18.997h13.214c1.988 0 3.275 0.224 4.8 1.45l0.039 0.032c0.302 0.255 0.561 0.525 0.781 0.814 0.099-0.162 0.209-0.317 0.328-0.463 0.98-1.198 2.558-1.806 4.691-1.806h10.206l-0.001-0.004h0.013l-0.004-0.018h10.462l0.004 0.018h2.614c1.252 0 2.78 0.129 4.111 0.995l-0.215-1.018h13.179c1.992 0 3.279 0.224 4.787 1.458l0.039 0.033c0.862 0.738 1.379 1.625 1.629 2.794l0.559 2.691 0.004 0.019c0.155 0.793 0.081 1.567-0.211 2.256 0.508 0.582 0.853 1.274 1.025 2.065l0.522 2.555c0.088 0.384 0.088 0.698 0.088 0.867 0 0.58-0.124 1.692-0.959 2.63" clip-path="url(#a)" fill="#1f1841"/><path d="m54.42 1.3008c-4.9638 0-6.2219 2.8636-6.7656 5.3711l-0.62891 3.123c-0.45375 2.2338 0.34883 3.5487 1.1113 4.2637h-2.1816l-0.1875 0.92578h-0.0039l-1.4785 7.248h0.01367l-0.0039 0.02344h10.24l0.0039-0.02344h4.3945c2.6525 0 5.2922-0.48414 6.6484-3.9941 0.145-0.3625 0.2357-0.69984 0.31445-0.99609l0.70312-3.5039c0.44375-2.1862-0.3125-3.4932-1.0625-4.2207h2.2129l1.6602-8.1953h-0.07422l0.0039-0.021484h-14.92zm-48.287 0.0117-4.4082 20.95h14.795c2.2925 0 3.51-0.20906 5.125-1.5078l0.01953-0.01563c0.85375-0.72 1.3538-1.5522 1.625-2.7109l3.616-16.714h-20.773zm63.803 0-4.4082 20.949h14.75c2.295 0 3.5103-0.20852 5.1016-1.5098l0.02148-0.01758c0.84375-0.72375 1.3287-1.5586 1.5762-2.7148l0.70117-3.3691c0.18625-0.96375 0.01078-1.8641-0.51172-2.6016-0.05-0.07125-0.10391-0.14078-0.16016-0.20703 0.89125-0.67125 1.4603-1.5507 1.6953-2.627l0.6543-3.1973c0.07625-0.32875 0.07617-0.61125 0.07617-0.78125 0-1.4662-0.74539-3.9238-5.7441-3.9238h-13.752zm-36.582 0.0098c-3.6162 0-5.5377 1.1542-6.6289 3.9805-0.145 0.365-0.2375 0.71289-0.3125 0.99414l-2.132 10.312c-0.3175 1.5688-0.06484 2.8738 0.75391 3.875 0.94625 1.1575 2.5538 1.7441 4.7812 1.7441h13.824l0.14844-0.70703 1.6367-7.4941h-10.191l0.92578-4.5098h10.229l1.6602-8.1953h-0.07617-14.619z" transform="matrix(.8 0 0 -.8 53.181 720.44)" fill="#1a5dad"/><path d="m54.422 2.2793c-4.2288 0-5.2904 2.2059-5.8066 4.5859l-0.62891 3.125c-0.295 1.4525-0.01531 2.5868 0.83594 3.373 0.79875 0.73875 2.0298 1.0957 3.7598 1.0957h4.4102l-0.29492 1.5039h-1.791l0.20312-0.92383h-8.3535l-0.1875 0.92383h-0.0039l-1.0801 5.2891h0.01172l-0.0039 0.02344h8.2539l0.0059-0.02344h5.1816c2.7375 0 4.6527-0.5632 5.7402-3.377 0.12125-0.30625 0.19969-0.5957 0.27344-0.87695l0.69336-3.4551c0.295-1.4525 0.01211-2.588-0.83789-3.373-0.80625-0.73875-2.036-1.0977-3.7598-1.0977h-4.4082l0.29297-1.5039h1.8809l-0.21289 0.9707h8.3555l1.2617-6.2383h-0.07617l0.0039-0.021484h-13.719zm-47.494 0.0137-3.9961 18.99h13.586c2.1825 0 3.1395-0.185 4.502-1.2812l0.01367-0.01172c0.69125-0.58375 1.0788-1.2344 1.2988-2.1719l3.3613-15.525h-8.668l-2.9434 13.527c-0.0125 0.0625-0.02242 0.10203-0.04492 0.14453l-0.022 0.035-0.02734 0.02734c-0.085 0.08625-0.26297 0.17188-0.94922 0.17188h-0.42969l3.0254-13.906h-8.707zm63.803 0-3.9961 18.99h13.543c2.18 0 3.132-0.18625 4.4707-1.2812l0.01563-0.0098c0.67875-0.5825 1.0539-1.2331 1.2539-2.1719l0.69922-3.3574c0.13625-0.705 0.01914-1.3284-0.34961-1.8496-0.17-0.24125-0.39813-0.45633-0.67188-0.64258l-0.39062-0.26562 0.41992-0.21484c1.1212-0.57625 1.7813-1.3857 2.0176-2.4707l0.65625-3.2148c0.05375-0.2225 0.05469-0.42141 0.05469-0.56641 0-1.9262-1.6501-2.9453-4.7676-2.9453h-12.955zm-37.377 0.00781c-3.2212 0-4.77 0.91078-5.7188 3.3633-0.1225 0.30875-0.20219 0.60875-0.27344 0.875l-2.1191 10.266c-0.2575 1.2675-0.07102 2.2961 0.55273 3.0586 0.75125 0.91875 2.1027 1.3848 4.0215 1.3848h13.027l0.002-0.0059 1.3633-6.2363h-8.3535l-0.18164 0.90039h-1.8242l1.7148-8.3613h1.8867l-0.2168 0.99414h8.3535l1.2637-6.2383h-0.07812-13.42zm44.955 5.1719h0.57617c0.1675 0 0.31359 0.014219 0.43359 0.042969l0.26367 0.0625-0.17383 0.85156c-0.10125 0.43625-0.50086 0.71648-1.0996 0.77148l-0.37891 0.033203 0.37891-1.7617zm-1.502 6.8691h0.46484c0.18625 0 0.34938 0.0065 0.48438 0.02148l0.30859 0.03125-0.30078 1.4238c-0.015 0.075-0.02547 0.10883-0.04297 0.14258l-0.01953 0.03516-0.0293 0.03125c-0.0875 0.0875-0.25727 0.16812-0.91602 0.17188l-0.34766 0.002 0.39844-1.8594z" transform="matrix(.8 0 0 -.8 53.181 720.44)" fill="#fab20b"/><path d="m33.354 2.9824c-2.8575 0-4.2148 0.70508-5.0723 2.9238-0.107 0.2688-0.18 0.5372-0.251 0.8047l-2.107 10.217c-0.24625 1.2138-0.02391 2.1081 0.62109 2.7031 0.66125 0.61125 1.7677 0.90625 3.2715 0.90625h9.0078 3.4531 0.002l0.67969-3.2676 0.37695-1.8105h-0.0078l0.01367-0.0059h-7.0234l-0.23438 1.1328h-3.0879l0.002-0.002 1.998-9.75h3.0996l-0.002 0.00195-0.25 1.2207h0.0059l-0.01172 0.00586h7.0234l0.25391-1.2285h0.02148l0.78516-3.8516h-12.568zm-25.861 0.00586-3.7031 17.598h12.748c2.09 0 2.9009-0.19625 4.0547-1.125 0.5225-0.44 0.86125-0.9282 1.0625-1.7832l3.1797-14.689h-7.248l-2.8242 12.979c-0.14625 0.68375-0.58766 0.92969-1.7227 0.92969h-1.2949v-0.002l3.0254-13.906h-7.2773zm63.803 0-3.7031 17.598h12.686c2.09 0 2.897-0.1943 4.0332-1.123 0.51375-0.44 0.84359-0.92891 1.0273-1.7852l0.69531-3.3477c0.2575-1.32-0.66047-2.1512-2.8242-2.4688l-0.73242-0.09961h-0.18164l0.40234-0.07227 0.58594-0.12305c2.3838-0.5125 3.4836-1.3438 3.7773-2.6875l0.66016-3.2266c0.03625-0.14625 0.03516-0.29352 0.03516-0.41602 0-1.4675-1.3559-2.248-4.0684-2.248h-12.393zm-16.625 0.00977c-2.8575 0-4.2167 0.70703-5.0742 2.9258-0.10625 0.26875-0.17875 0.53523-0.25 0.80273l-0.67969 3.4043c-0.24625 1.215-0.02266 2.1081 0.62109 2.7031 0.66125 0.61125 1.7677 0.9082 3.2715 0.9082h4.6387v-0.002h0.64258v0.0039l-0.57422 2.9375h-3.1191l0.24805-1.207h-0.0059l0.01172-0.0059h-7.0234l-1.0469 5.0684 0.0098-0.002h12.57c2.8575 0 4.216-0.70773 5.0723-2.9277 0.1075-0.2675 0.17875-0.53523 0.25-0.80273l0.67969-3.4062c0.24625-1.2138 0.02461-2.1062-0.61914-2.7012-0.6625-0.61125-1.7709-0.90625-3.2734-0.90625h-5.2734-0.0078v-0.00391l0.57227-2.9375h3.1211l-0.25 1.2227h0.0059l-0.01172 0.00586h7.0234l1.0469-5.0684-0.01172 0.00391 0.0039-0.015625h-12.568zm23.078 3.7793h1.1348c0.99125 0 1.4674 0.41453 1.3574 1.0508l-0.15039 0.74805c-0.18875 0.83625-0.97195 1.3144-1.9395 1.3281h-1.0781l0.67578-3.127zm-1.5039 6.8672h1.0273c1.21 0 1.5748 0.26969 1.4648 0.92969l-0.29102 1.3926c-0.1475 0.68375-0.58836 0.92969-1.7246 0.92969h-1.1738l0.69727-3.252z" transform="matrix(.8 0 0 -.8 53.181 720.44)" fill="#fff"/><path d="m24.836 2.9805-3.979 1.8965-2.423 11.51c-0.14375 0.67125-0.40219 1.0541-0.80469 1.4004-0.89125 0.7275-1.5234 0.87891-3.1621 0.87891h-6.6328l3.9141-1.7676 3.0176-13.904-4.0664 1.8828-2.8945 13.793-3.9805 1.916h12.713c2.09 0 2.9016-0.1943 4.0566-1.123 0.52125-0.44 0.86055-0.92891 1.0605-1.7852l3.181-14.698zm42.426 0.017578-4.0254 1.8652-0.25977 1.6406-3.7656 1.5684-0.01172 0.00586h7.0234l1.0469-5.0684-0.01172 0.00391 0.0039-0.015625zm-4.0254 1.8652h-7.75c-1.4288 0-2.1084 0.35219-2.5371 1.4609-0.05375 0.13375-0.08875 0.27055-0.125 0.4043l-0.682 3.2403c-0.12625 0.62125-0.0067 1.0736 0.33203 1.3711l3.2871-1.5527 0.57422-2.9375h3.123l3.7773-1.9863zm-10.762 6.4766-3.1641 1.4941c0.6625 0.61125 1.769 0.90625 3.2715 0.90625h4.6387 0.002 0.64062v0.0039l3.2871-1.5527c-0.33375-0.2925-0.88609-0.41992-1.6211-0.41992h-3.4785v0.002h-1.9629c-0.735 0-1.2795-0.14109-1.6133-0.43359zm-6.567-8.3302-3.949 1.8652l-0.34375 1.6289-3.7773 1.5742h7.0234l1.0469-5.0684zm41.525 1.1582-3.7344 1.5449c-0.45825-0.55361-1.4139-0.84375-2.877-0.84375h-6.3398l-1.4453 6.8789-1.4551 6.918 3.9668-1.7695 0.69531-3.252h1.0273c1.1225 0 1.518 0.23367 1.4805 0.79492l3.8105-1.5625c0.13 0.25375 0.16461 0.54977 0.09961 0.88477l-0.54688 2.625c-0.14375 0.67125-0.40219 1.0541-0.80469 1.4004-0.89125 0.7275-1.5246 0.87891-3.1621 0.87891h-6.5664l-3.9883 1.9199h12.684c2.0888 0 2.8957-0.1943 4.0332-1.123 0.5125-0.44 0.84164-0.93016 1.0254-1.7852l0.69726-3.3477c0.205-1.055-0.34117-1.7961-1.6699-2.2148l-0.002 0.0039c-0.5925-0.2125-1.5942-0.33109-1.9805-0.37109l0.31641-0.05859 0.58594-0.12109c2.3838-0.5125 3.4836-1.3438 3.7773-2.6875l0.66016-3.2285c0.035-0.14625 0.03516-0.29156 0.03516-0.41406 0-0.41125-0.10976-0.76906-0.32226-1.0703zm-53.287 0.69336c-1.4288 0-2.1084 0.35414-2.5371 1.4629-0.0525 0.135-0.08875 0.26859-0.125 0.40234l-2.107 10.054c-0.12625 0.62125-0.0067 1.0729 0.33203 1.3691l3.2871-1.5527 2-9.748h3.0996l3.8691-1.9824-0.06641-0.00586h-7.752zm49.561 0.86719c0.20127 0.24988 0.30664 0.55083 0.30664 0.9043 0 0.09625-0.000547 0.21117-0.0293 0.32617l-0.51953 2.5293c-0.22875 1.0537-1.0902 1.7049-2.959 2.1074l-0.45898 0.0957-0.31836 0.05664h-6.6543l3.998-1.8438 0.67578-3.127h1.1348c0.61875 0 1.0363 0.16125 1.2363 0.4375l3.5879-1.4863zm-19.391 4.9688-3.1641 1.4941c0.33875 0.2975 0.45828 0.74984 0.33203 1.3711l-0.68359 3.2422c-0.03625 0.13375-0.07125 0.26859-0.125 0.40234-0.42875 1.11-1.1064 1.4629-2.5352 1.4629h-7.8242-0.002l-3.9512 1.8652h12.57c2.8575 0 4.216-0.70703 5.0723-2.9258 0.1075-0.26875 0.17875-0.53719 0.25-0.80469l0.681-3.404c0.24625-1.215 0.02461-2.1094-0.61914-2.7031zm-14 7.9727 3.8516-1.9746 0.002-0.01367 0.24805-1.207h-0.0078l-3.7637 1.5684-0.33008 1.627zm32.24-5.8047 0.0059 0.002-0.0039 0.002c-0.000769-0.0012-0.0012-0.0024-0.002-0.0039zm-39.229 2.6094-3.7637 1.5684-0.32617 1.543h-7.916c-0.735 0-1.2808-0.14109-1.6133-0.43359l-3.166 1.4922c0.6625 0.6125 1.7709 0.9082 3.2734 0.9082h9.0078 3.4531 0.002l0.4082-1.9668 0.64844-3.1113h-0.0078z" transform="matrix(.8 0 0 -.8 53.181 720.44)" fill="#abb9e1"/></g></g></svg>
