<svg xmlns="http://www.w3.org/2000/svg" height="39.976" viewBox="0 0 250 39.97586" width="250"><g transform="matrix(1.25 0 0 -1.25 -283.35 943.2)"><g transform="matrix(1.3178 0 0 1.3178 -102.62 -233.73)"><path d="m3.9023 0-1.582 5.3789h1.7578l-3.5742 12.185c-0.35287 1.054-0.5039 1.804-0.5039 2.506 0 3.1806 3.9189 3.1816 6.5117 3.1816h4.8301c1.3154 0 4.3963-0.0011 6.4297-2.416 0.87188-0.99488 1.2022-2.0745 1.5215-3.1191l3.6035-12.338h1.7207l1.584-5.379h-9.6113l-5.2383 17.877h-3.043l5.204-17.877h-9.6097zm31.518 0c-2.249 0.062375-5.046 0.1407-6.926 2.0176-1.21 1.2009-1.752 2.8675-2.969 6.8574l-1.875 6.2461c-0.5645 2.0908-0.90475 3.3515-0.98438 4.3086 0 0.04763-0.0094 0.09666-0.01563 0.14453-0.01225 0.08012-0.02148 0.15891-0.02148 0.23828 0 3.4388 3.6907 3.4395 5.4648 3.4395h11.404l2.6328-8.957h-7.0645l-1.0488 3.582h-3.3633c1.0328-4.3601 2.0876-7.9202 3.7031-12.498h3.3184l-0.74609 2.5879h6.7637l2.331-7.9669h-10.603zm20.113 0.26562c-1.721 0.03213-3.928 0.06369-5.726 1.7266-1.048 0.9595-1.422 2.0458-1.795 3.1328l-1.0488 3.6133c-0.15 0.60825-0.29883 1.2156-0.29883 1.8555 0 2.9728 2.957 2.9729 5.0156 3.0059h5.127l-1.3477 4.541h-4.1172l0.63672-2.1426h-6.8125l-1.9824 6.8418h11.602c1.7222 0 4.0048 0.000422 5.8008-1.4707 0.74962-0.60825 1.5706-1.7908 1.9082-2.8789l1.0098-3.3242c0.3745-1.3435 0.59961-2.1421 0.59961-3.0059 0-2.8771-2.8443-2.9421-5.3145-2.9746h-4.8262l1.2344-4.2188h4.1172l-0.56445 1.9492h6.3633l1.9453-6.6504h-11.525zm52.768 0-1.3848 4.7012h1.6836l-3.8555 13.174h-1.6836l-1.3477 4.6992h12.76c5.7274-0.09613 6.9608-1.3423 8.8691-8.0254l1.7617-5.9785c1.0468-3.8051 1.1973-4.4141 1.1973-5.4688 0-0.44675-0.00092-1.9192-1.6856-2.6543-0.86-0.38488-1.75-0.44778-4.15-0.44778h-12.16zm24.697 0.92578c-1.4955 0-2.7324 1.0558-2.7324 2.3359 0 1.2784 1.2369 2.334 2.7324 2.334 1.4968 0 2.7324-1.0556 2.7324-2.334 0-1.2801-1.2357-2.3359-2.7324-2.3359zm-17.402 3.7754h3.4434c-0.67375 3.134-2.6931 10.072-3.7422 13.174h-3.5547l3.8535-13.174zm-43.746 2.8125c-3.597 0.1924-4.121 1.8862-4.645 3.5797l-0.52344 1.793h5.5l0.52539-1.793h3.5547l-0.78711 2.8789h-5.0137c-3.8548 0-4.5276 1.2788-5.0527 2.9727l-0.74805 2.623c-0.1115 0.48025-0.14844 0.8313-0.14844 1.248 0 1.7891 1.7958 1.7578 2.7305 1.7578h3.3691l2.9199-1.7891-0.48828 1.7891h7.748l1.1953-4.0293h-1.6465l2.2852-7.834c0.07388-0.35238 0.14844-0.67131 0.14844-1.0547 0-2.1104-2.3213-2.1426-3.1816-2.1426h-7.7461zm13.994 0-1.1973 4.0625h1.5352l-3.2188 10.998h6.2871l3.2188-10.998h3.0684l-3.2188 10.998h7.8984l1.1973-4.0625h-1.7227l2.0605-6.9355c0.18538-0.67225 0.41016-1.5678 0.41016-2.1445 0-1.8212-2.2442-1.918-3.5547-1.918h-2.209l-3.4043 2.2715 0.67188-2.2715h-7.8223zm41.391 0-1.1602 4.0625h1.6484l-2.0215 6.9355h-1.459l-1.1602 4.0625h9.2051l1.1602-4.0625h-1.4961l3.2168-10.998h-7.9336zm15.119 0c-2.9935 0-4.1538 1.151-5.0137 3.8691l-0.52539 1.6953-1.084 3.9004c-0.2615 0.99138-0.75 2.4939-0.75 3.6133 0 1.8868 1.8327 1.9503 3.4043 1.9824h6.4004c3.3691-0.06488 3.9698-0.79919 4.791-3.1016l0.67383-2.207h-6.0254l-0.48828 1.6953h-2.3555c0.2625-1.0554 0.44878-1.6638 0.78516-2.9102h8.084l1.5332-5.2754c0.0749-0.38375 0.18946-0.76627 0.18946-1.1504 0-1.9514-1.7989-2.0456-3.5195-2.1113h-6.0996zm17.852 0c-4.005 0-4.7523 0.25539-6.3613 5.916l-1.125 3.9004c-0.22487 0.83062-0.82227 2.8765-0.82227 3.5488 0 1.5676 1.4598 1.6309 2.7324 1.7266h3.3691l2.8809-1.8555-1.2734 4.4453h-2.957l0.41211-1.4062h-5.7246l-0.52344 1.7266c-0.15088 0.513-0.33789 1.1507-0.33789 1.5352 0 0.543 0.33756 0.95859 0.89844 1.2148 0.299 0.12762 1.0864 0.28711 2.8438 0.28711h6.5859c1.1979 0 2.0225-0.03122 2.957-0.54297 1.3094-0.70325 1.6094-1.6632 2.1699-3.3574l3.8164-13.076h1.6856l1.1953-4.0625h-8.0449l-0.52344 1.7598-1.6465-1.7598h-2.207zm18.598 0c-1.3842 0-3.2171 0.030656-4.6016 1.5977-0.67475 0.76787-0.97408 1.6314-1.2363 2.4297l-0.52343 1.7266-0.89844 3.4238-0.44922 1.8535c-0.11225 0.54562-0.22461 1.1822-0.22461 1.7266 0 2.1096 1.9838 2.2379 3.293 2.3027h5.9512c1.5352 0 3.7411-0.000703 5.125-2.0801 0.638-0.9595 1.0864-2.589 1.4238-3.7715l1.123-4.3164c0.22387-0.86425 0.41211-1.92 0.41211-2.4961 0-2.2382-2.0212-2.3965-4.6035-2.3965h-4.791zm-35.139 3.5801h2.3574l-0.63671 2.1738h-2.3203c0.18663-1.0864 0.26161-1.3415 0.59961-2.1738zm35.475 0.44727h2.7324c-1.3458 5.0536-1.4967 5.6299-1.9082 7.0039h-2.6934c0.48425-2.3652 1.4569-5.7248 1.8691-7.0039zm-18.521 0.03516h2.9531l-2.0195 6.9688h-2.957c0.487-2.3319 1.1993-4.6674 2.0234-6.9688zm-89.555 5.1465h3.6328l-0.63867 2.2383h-3.6641l0.66992-2.2383z" transform="matrix(.8 0 0 -.8 250.61 749.3)" fill="#182b49"/><path d="m4.4062 0.67578-1.1855 4.0273h1.7578l-3.832 13.064c-0.33231 0.99288-0.47266 1.6774-0.47266 2.3027 0 2.0955 2.141 2.5059 5.8379 2.5059h4.8301c1.2218 0 4.0821 0.000312 5.918-2.1797 0.78012-0.89088 1.09-1.901 1.3887-2.877l0.08203-0.26758 3.6602-12.549h1.7227l1.1875-4.0273h-8.2051l-5.2402 17.877h-4.4453l5.2031-17.877h-8.207zm31.023 0c-2.2309 0.0625-4.7701 0.13219-6.4609 1.8203-1.0954 1.0865-1.6186 2.7015-2.7988 6.5742l-1.8711 6.2344c-0.55212 2.0455-0.88781 3.2863-0.96094 4.1543 0.001 0.051-0.0087 0.13069-0.01953 0.21094-0.0075 0.048-0.01563 0.09533-0.01563 0.14258 0 2.5501 2.4729 2.7637 4.791 2.7637h10.9l2.2363-7.6055h-5.6582l-1.0488 3.582h-4.7207l0.09766-0.41406c1.0876-4.6498 2.1815-8.3539 3.9023-13.211l0.07813-0.22461h4.6914l-0.74609 2.5898h5.3613l1.9355-6.6172h-9.6934z" transform="matrix(.8 0 0 -.8 250.61 749.3)" fill="#ffc605"/></g></g></svg>
